<?xml version="1.0" encoding="UTF-8" standalone="no"?>
<svg
   xmlns:dc="http://purl.org/dc/elements/1.1/"
   xmlns:cc="http://creativecommons.org/ns#"
   xmlns:rdf="http://www.w3.org/1999/02/22-rdf-syntax-ns#"
   xmlns:svg="http://www.w3.org/2000/svg"
   xmlns="http://www.w3.org/2000/svg"
   xmlns:sodipodi="http://sodipodi.sourceforge.net/DTD/sodipodi-0.dtd"
   xmlns:inkscape="http://www.inkscape.org/namespaces/inkscape"
   width="400"
   height="128"
   viewBox="0 0 105.83365 33.866668"
   version="1.1"
   id="svg8"
   inkscape:version="1.0 (4035a4fb49, 2020-05-01)"
   sodipodi:docname="covidbanner.svg">
  <defs
     id="defs2" />
  <sodipodi:namedview
     id="base"
     pagecolor="#ffffff"
     bordercolor="#666666"
     borderopacity="1.0"
     inkscape:pageopacity="0.0"
     inkscape:pageshadow="2"
     inkscape:zoom="1.979899"
     inkscape:cx="205.03024"
     inkscape:cy="79.480373"
     inkscape:document-units="mm"
     inkscape:current-layer="layer1"
     inkscape:document-rotation="0"
     showgrid="false"
     inkscape:pagecheckerboard="true"
     units="px"
     inkscape:window-width="1920"
     inkscape:window-height="1017"
     inkscape:window-x="1912"
     inkscape:window-y="-8"
     inkscape:window-maximized="1" />
  <metadata
     id="metadata5">
    <rdf:RDF>
      <cc:Work
         rdf:about="">
        <dc:format>image/svg+xml</dc:format>
        <dc:type
           rdf:resource="http://purl.org/dc/dcmitype/StillImage" />
        <dc:title></dc:title>
      </cc:Work>
    </rdf:RDF>
  </metadata>
  <g
     inkscape:label="Layer 1"
     inkscape:groupmode="layer"
     id="layer1">
    <text
       xml:space="preserve"
       style="font-size:16.9333px;line-height:1.25;font-family:Voga;-inkscape-font-specification:Voga;letter-spacing:0.0396875px;fill:#242423;fill-opacity:1;stroke-width:0.264583"
       x="16.219002"
       y="24.215767"
       id="text843"><tspan
         sodipodi:role="line"
         id="tspan841"
         x="16.219002"
         y="24.215767"
         style="font-style:normal;font-variant:normal;font-weight:bold;font-stretch:normal;font-size:19.05px;font-family:Epilogue;-inkscape-font-specification:'Epilogue Bold';fill:#242423;fill-opacity:1;stroke-width:0.264583"><tspan
           id="tspan860"
           style="fill:#c81d25;fill-opacity:1">COVID-19</tspan></tspan></text>
    <path
       transform="matrix(0.26458413,0,0,0.26458413,0,-5e-5)"
       id="path851"
       d="m 60.962951,121.06397 c -2.684526,-0.37766 -6.757114,-1.99181 -7.465205,-2.95879 -1.014975,-1.38606 0.153293,-2.54428 4.102568,-4.06728 1.757311,-0.67769 3.419698,-1.72377 4.047616,-2.54701 0.833246,-1.09244 1.047671,-1.86136 1.033671,-3.7067 -0.01891,-2.49194 -0.853214,-6.8889 -1.572955,-8.289773 -1.5368,-2.99115 -4.937229,-5.973691 -8.233895,-7.222007 -1.107798,-0.419479 -1.471768,-0.459038 -4.858228,-0.528024 -4.243247,-0.08644 -5.292916,0.05424 -7.053572,0.945361 -2.554705,1.293011 -6.443934,4.607034 -7.478387,6.372356 -0.589798,1.006507 -0.781909,2.451987 -0.483423,3.637387 0.116025,0.46078 0.620166,1.7312 1.12031,2.82316 1.730872,3.77897 1.345536,5.06012 -1.47403,4.9008 -3.971345,-0.2244 -11.506331,-6.62554 -14.248663,-12.104549 -0.92477,-1.847634 -1.23345,-3.174193 -0.916603,-3.939127 0.541966,-1.308422 1.910437,-1.38973 4.552225,-0.270477 3.086652,1.30773 3.995819,1.565425 5.263693,1.491936 1.733539,-0.100481 2.656818,-0.628464 4.758837,-2.721373 2.010375,-2.001661 3.230638,-3.742825 3.834768,-5.471738 0.344552,-0.986046 0.412977,-1.617362 0.479702,-4.425902 0.08919,-3.753925 -0.06345,-4.84751 -0.9429,-6.755384 -0.787066,-1.707466 -1.511295,-2.741421 -3.025366,-4.319207 -2.873452,-2.994369 -5.486886,-4.104496 -10.968012,-4.658962 -2.98796,-0.302259 -3.576416,-0.258161 -4.81516,0.360846 -1.487124,0.743125 -2.158402,1.586356 -3.691546,4.637163 -1.53178,3.048096 -2.091482,3.743491 -3.0130187,3.743491 -2.8725413,0 -5.0304706,-8.373806 -3.9575346,-15.357143 0.6400547,-4.165877 1.8274835,-6.716609 3.5455011,-7.616143 0.4499517,-0.235589 0.5518712,-0.233321 0.9398872,0.02092 0.689317,0.451657 1.613472,1.842 2.318517,3.488084 1.260127,2.942045 2.265952,4.38622 3.489682,5.01052 0.593466,0.302764 1.062462,0.346623 3.706556,0.346623 5.525913,0 8.112656,-0.91003 11.11183,-3.909205 3.063089,-3.063088 4.689896,-7.096615 4.689217,-11.626509 -3.57e-4,-2.4805 -0.2791,-3.842211 -1.130185,-5.521436 -0.771652,-1.522498 -2.632025,-4.047857 -4.025827,-5.464852 -1.661552,-1.6892 -2.305943,-1.937555 -4.764434,-1.836266 -1.661752,0.06846 -2.019934,0.149245 -3.698872,0.834223 -1.022423,0.417131 -2.22778,0.827754 -2.678572,0.912493 -0.9494,0.178472 -2.311341,-0.02427 -2.535057,-0.377375 -0.08475,-0.13377 -0.155325,-0.703436 -0.156829,-1.265925 -0.0063,-2.345611 1.939402,-5.631 5.423712,-9.158267 2.54115,-2.57248 4.523613,-4.079727 6.862625,-5.217591 1.458393,-0.709466 1.886955,-0.835534 3.073961,-0.904249 1.246044,-0.07213 1.417702,-0.04145 1.776716,0.317564 0.352389,0.352389 0.389753,0.541974 0.329823,1.673474 -0.05603,1.057894 -0.208871,1.581368 -0.893953,3.061778 -0.454502,0.982143 -0.924452,2.098052 -1.044336,2.479798 -0.321573,1.023995 -0.14085,3.061156 0.357911,4.034456 0.91248,1.780642 3.745835,4.156807 6.557451,5.499339 l 1.392641,0.664978 h 4.464286 c 4.972157,0 5.146838,-0.03033 7.767857,-1.348935 1.677259,-0.843807 2.819959,-1.660322 4.167157,-2.977634 2.812915,-2.750513 4.132497,-6.000925 4.348874,-10.712208 0.12936,-2.816627 -0.07536,-3.561451 -1.354891,-4.929372 -0.910231,-0.97311 -1.685547,-1.410058 -4.303161,-2.42515 -1.982222,-0.768691 -2.895132,-1.368821 -3.313797,-2.178428 -1.204125,-2.3285208 4.488568,-4.6247012 11.465563,-4.6247012 4.908264,0 8.610632,0.8816292 11.20855,2.6690441 1.084246,0.7459811 1.289907,1.1461761 0.897104,1.7456721 -0.639915,0.976632 -1.462127,1.482815 -5.153788,3.172853 -2.231302,1.021487 -3.151975,1.769161 -3.797666,3.084065 -0.467204,0.951429 -0.502168,1.171811 -0.488393,3.078366 0.019,2.629029 0.519889,4.889625 1.562998,7.054028 1.437268,2.982261 3.437181,4.875972 6.99574,6.624242 2.768539,1.360144 3.808814,1.546976 8.122853,1.458857 3.973579,-0.08116 4.598802,-0.230495 6.856425,-1.637609 1.528457,-0.952647 4.579786,-3.48887 5.357948,-4.453457 0.506036,-0.62727 0.559016,-0.818059 0.618016,-2.225604 0.07881,-1.88022 -0.158269,-3.010725 -1.090441,-5.199676 -0.481217,-1.130007 -0.746012,-2.048925 -0.806091,-2.797382 -0.08195,-1.020955 -0.05069,-1.153367 0.372077,-1.576138 1.1268,-1.126801 4.187727,-0.09243 8.231052,2.781491 6.24265,4.437162 10.75848,11.939575 8.28945,13.771746 -0.92126,0.683638 -2.78928,0.29588 -5.32844,-1.106062 -1.15174,-0.635913 -1.17727,-0.640847 -3.30357,-0.638522 -1.87641,0.0021 -2.24805,0.05386 -2.988872,0.416652 -0.92007,0.450575 -3.266045,2.82733 -4.272397,4.328454 -0.496368,0.740407 -0.670419,0.876275 -1.0423,0.813639 -3.846425,-0.647861 -4.269966,-0.681447 -7.410714,-0.587643 -4.282086,0.127891 -6.422159,0.615659 -9.658629,2.201404 -7.493435,3.671491 -12.144919,11.876175 -12.734533,22.462251 -0.42655,7.658386 0.929983,14.329945 3.963744,19.49407 2.332634,3.970655 5.9538,7.229889 9.857989,8.872698 0.855542,0.359995 0.999467,0.474179 0.714286,0.566679 -4.768452,1.546696 -8.184675,4.539837 -9.829093,8.611812 -0.625671,1.549312 -0.810344,2.976532 -0.919121,7.103352 l -0.09885,3.75 1.137817,1.08471 c 1.331825,1.26967 2.294791,1.85341 3.93968,2.38819 2.012675,0.65436 4.073136,2.21904 4.073136,3.09308 0,1.18443 -3.188865,2.88721 -6.445066,3.44153 -1.605025,0.27323 -8.470299,0.50935 -9.715649,0.33415 z"
       style="fill:#c91d25;fill-opacity:1;stroke-width:1.31149604;stroke-linecap:round;stroke-linejoin:round;paint-order:markers stroke fill;stroke:#c81d25;stroke-opacity:0.96065575;stroke-miterlimit:4;stroke-dasharray:none" />
  </g>
</svg>
